<svg width="16" height="16" viewBox="0 0 16 16" fill="none" xmlns="http://www.w3.org/2000/svg">
<g id="Icon/Font Awesome Free/Solid/T/times">
<path id="Vector" d="M10.5272 7.99992L14.3177 4.20939C14.7829 3.74424 14.7829 2.99007 14.3177 2.52454L13.4753 1.68212C13.0101 1.21696 12.256 1.21696 11.7904 1.68212L7.99992 5.47265L4.20939 1.68212C3.74424 1.21696 2.99007 1.21696 2.52454 1.68212L1.68212 2.52454C1.21696 2.98969 1.21696 3.74386 1.68212 4.20939L5.47265 7.99992L1.68212 11.7904C1.21696 12.2556 1.21696 13.0098 1.68212 13.4753L2.52454 14.3177C2.98969 14.7829 3.74424 14.7829 4.20939 14.3177L7.99992 10.5272L11.7904 14.3177C12.2556 14.7829 13.0101 14.7829 13.4753 14.3177L14.3177 13.4753C14.7829 13.0101 14.7829 12.256 14.3177 11.7904L10.5272 7.99992Z" fill="#2C4874"/>
</g>
</svg>
