<svg width="31" height="31" viewBox="0 0 31 31" fill="none" xmlns="http://www.w3.org/2000/svg">
<g id="Icon/Font Awesome Free/Regular/A/arrow-alt-circle-left">
<path id="Vector" d="M3 15.5C3 22.4052 8.59476 28 15.5 28C22.4052 28 28 22.4052 28 15.5C28 8.59476 22.4052 3 15.5 3C8.59476 3 3 8.59476 3 15.5ZM25.5806 15.5C25.5806 21.0696 21.0696 25.5806 15.5 25.5806C9.93044 25.5806 5.41935 21.0696 5.41935 15.5C5.41935 9.93044 9.93044 5.41935 15.5 5.41935C21.0696 5.41935 25.5806 9.93044 25.5806 15.5ZM21.9516 14.4919V16.5081C21.9516 16.8407 21.6794 17.1129 21.3468 17.1129H15.5V20.4899C15.5 21.0292 14.8498 21.2964 14.4667 20.9183L9.47681 15.9284C9.23992 15.6915 9.23992 15.3085 9.47681 15.0716L14.4667 10.0817C14.8498 9.69859 15.5 9.97077 15.5 10.5101V13.8871H21.3468C21.6794 13.8871 21.9516 14.1593 21.9516 14.4919Z" fill="#3A4B78"/>
</g>
</svg>
